
<svg width="512" height="512" viewBox="0 0 512 512" xmlns="http://www.w3.org/2000/svg" version="1.1" preserveAspectRatio="xMinYMin">
    <g id="img-logo-camper">
        <path xmlns="http://www.w3.org/2000/svg" fill="#7DDCD4" d="M505.952,311.483C509.901,293.615,512,275.054,512,256C512,114.616,397.384,0,256,0 C114.615,0,0,114.616,0,256c0,126.222,91.353,231.1,211.548,252.144L505.952,311.483z"/><path xmlns="http://www.w3.org/2000/svg" fill="#02C8A7" d="M179.562,125.752l-145.243,68.7l74.358,74.358l-52.821,83.643l155.693,155.693 C225.987,510.673,240.838,512,256,512c122.33,0,224.603-85.81,249.952-200.517l-55.386-55.386L179.562,125.752z"/><path xmlns="http://www.w3.org/2000/svg" fill="#F85C67" d="M446.33,252.995l-28.939-14.024l-24.298-27.77c-8.058-9.205-24.676-16.751-36.92-16.751h-34.69 l-32.282-11.13v119.04l122.624,44.522l44.522-66.783v-11.13C456.348,262.845,451.84,255.655,446.33,252.995z"/><path xmlns="http://www.w3.org/2000/svg" fill="#FBD867" d="M430.559 313.494L456.348 302.364 456.348 280.103 430.559 280.103z"/><path xmlns="http://www.w3.org/2000/svg" fill="#F63341" d="M430.559,302.364c-13.17-13.706-31.659-22.261-52.124-22.261c-20.464,0-38.954,8.555-52.124,22.261 H289.2l11.13,50.087h156.018v-50.087H430.559z"/><path xmlns="http://www.w3.org/2000/svg" fill="#FEF2CC" d="M177.901 50.818L134.826 164.088 177.901 352.453 300.33 352.453 300.33 194.452 321.484 194.452z"/><path xmlns="http://www.w3.org/2000/svg" fill="#FFFFFF" d="M34.318 194.452L55.856 194.452 55.856 352.453 177.897 352.453 177.901 50.818z"/><path xmlns="http://www.w3.org/2000/svg" fill="#263230" d="M127.814,402.54l-30.052-50.087l30.052-50.087c27.618,0,50.087,22.469,50.087,50.087 C177.901,380.071,155.432,402.54,127.814,402.54z"/><path xmlns="http://www.w3.org/2000/svg" fill="#1A534A" d="M77.727,352.453c0,27.618,22.469,50.087,50.087,50.087V302.365 C100.196,302.366,77.727,324.834,77.727,352.453z"/><path xmlns="http://www.w3.org/2000/svg" fill="#C3C9C8" d="M127.814,380.279l-16.696-27.826l16.696-27.826c15.343,0,27.826,12.483,27.826,27.826 C155.64,367.796,143.157,380.279,127.814,380.279z"/><path xmlns="http://www.w3.org/2000/svg" fill="#FFFFFF" d="M99.988,352.453c0,15.343,12.483,27.826,27.826,27.826v-55.652 C112.471,324.627,99.988,337.11,99.988,352.453z"/><path xmlns="http://www.w3.org/2000/svg" fill="#263230" d="M378.434,402.54l-30.052-50.087l30.052-50.087c27.618,0,50.087,22.469,50.087,50.087 C428.521,380.071,406.053,402.54,378.434,402.54z"/><path xmlns="http://www.w3.org/2000/svg" fill="#1A534A" d="M328.347,352.453c0,27.618,22.469,50.087,50.087,50.087V302.365 C350.816,302.366,328.347,324.834,328.347,352.453z"/><path xmlns="http://www.w3.org/2000/svg" fill="#B0B7B6" d="M378.435,380.277l-16.696-27.826l16.696-27.826c15.343,0,27.826,12.483,27.826,27.826 C406.261,367.794,393.778,380.277,378.435,380.277z"/><path xmlns="http://www.w3.org/2000/svg" fill="#C3C9C8" d="M350.609,352.451c0,15.343,12.483,27.826,27.826,27.826v-55.652 C363.091,324.625,350.609,337.107,350.609,352.451z"/><path xmlns="http://www.w3.org/2000/svg" fill="#40D2BE" d="M177.9 172.191L155.639 250.104 244.683 238.974 244.683 172.191z"/><path xmlns="http://www.w3.org/2000/svg" fill="#7DDCD4" d="M177.9 172.191L111.117 172.191 111.117 238.974 177.9 250.104z"/><path xmlns="http://www.w3.org/2000/svg" fill="#FDE59A" d="M177.9 238.974L165.84 250.104 177.9 261.235 244.683 261.235 244.683 238.974z"/><path xmlns="http://www.w3.org/2000/svg" fill="#FEF2CC" d="M111.115 238.97H177.898V261.231H111.115z"/>
    </g>
</svg>
